<svg width="38" height="15" viewBox="0 0 38 15" fill="none" xmlns="http://www.w3.org/2000/svg">
<path d="M5.00664 3.50311C5.45963 3.34774 5.94282 3.26487 6.44413 3.26487C8.63861 3.26487 10.4707 4.8683 10.8895 7L14 6.34744C13.2873 2.72625 10.1748 0 6.44413 0C5.58848 0 4.76908 0.142942 4 0.408109L5.00664 3.50311Z" fill="white"/>
<path d="M2.21138 13L4 10.7356C3.2024 9.9437 2.69919 8.78752 2.69919 7.49904C2.69919 6.21248 3.2024 5.0563 4 4.26634L2.21138 2C0.855798 3.346 0 5.31131 0 7.49904C0 9.68869 0.855798 11.654 2.21138 13Z" fill="#9E9E9E"/>
<path d="M10.8895 8C10.4687 10.1309 8.63861 11.7332 6.44614 11.7332C5.94282 11.7332 5.45762 11.6503 5.00664 11.4927L4 14.5937C4.76908 14.857 5.5905 15 6.44614 15C10.1727 15 13.2833 12.2763 14 8.65709L10.8895 8Z" fill="white"/>
<path d="M16.6864 10.8108C16.588 10.652 16.4569 10.3982 16.3759 10.2103C15.9034 9.1099 15.8822 7.97076 16.2795 6.87813C16.7173 5.67894 17.5543 4.76259 18.6363 4.29377C19.996 3.70676 21.4984 3.82106 22.8022 4.59792C23.6296 5.0745 24.2159 5.81067 24.6614 6.85294C24.7173 6.98661 24.7675 7.12804 24.8176 7.25009L16.6864 10.8108ZM19.402 6.06252C18.4357 6.47904 17.9381 7.38957 18.0423 8.45509L22.131 6.68633C21.427 5.85717 20.5129 5.58207 19.402 6.06252V6.06252ZM22.6402 9.91C22.6382 9.91 22.6382 9.91194 22.6382 9.91194L22.5534 9.85382C22.3084 10.251 21.9285 10.5745 21.4483 10.7837C20.5341 11.1828 19.6874 11.0801 19.0779 10.5435L19.022 10.6287C19.022 10.6287 19.022 10.6268 19.0201 10.6268L17.9825 12.1863C18.2409 12.3665 18.5167 12.5176 18.806 12.6397C19.9516 13.1182 21.1242 13.0949 22.2795 12.5912C23.1146 12.227 23.7704 11.6729 24.2178 10.9697L22.6402 9.91ZM27.6585 2V10.6675L29.0009 11.2138L28.2391 13L26.7579 12.3801C26.4261 12.2348 26.1985 12.0139 26.0288 11.764C25.8649 11.5102 25.7434 11.1596 25.7434 10.6907V2H27.6585ZM31.134 8.4609C31.134 7.72279 31.4599 7.06023 31.9729 6.61078L30.5959 5.06869C29.6624 5.89785 29.0742 7.10866 29.0742 8.45703C29.0722 9.80733 29.6605 11.0201 30.592 11.8492L31.9672 10.3072C31.4561 9.85576 31.134 9.19708 31.134 8.4609V8.4609ZM33.5795 10.9193C33.3095 10.9193 33.0472 10.8728 32.8042 10.7915L32.1465 12.754C32.5959 12.9051 33.0761 12.9884 33.5776 12.9884C35.757 12.9903 37.5757 11.4366 37.9981 9.37337L35.9768 8.95879C35.7473 10.0805 34.7618 10.9213 33.5795 10.9193V10.9193ZM33.5853 3.93343C33.0858 3.93343 32.6055 4.01479 32.1562 4.16397L32.8081 6.12839C33.053 6.04702 33.3134 6.00247 33.5834 6.00247C34.7676 6.0044 35.755 6.84907 35.9788 7.9727L38 7.56199C37.5853 5.49489 35.7666 3.93536 33.5853 3.93343V3.93343Z" fill="white"/>
</svg>
