<svg width="50" height="20" viewBox="0 0 50 20" fill="none" xmlns="http://www.w3.org/2000/svg">
<path d="M7.79373 4.34344C8.35668 4.15579 8.95716 4.05571 9.58016 4.05571C12.3073 4.05571 14.5842 5.99226 15.1046 8.56682L18.9702 7.77869C18.0845 3.40519 14.2164 0.112549 9.58016 0.112549C8.51681 0.112549 7.49849 0.285187 6.54272 0.605444L7.79373 4.34344Z" fill="#FFCB05"/>
<path d="M3.23259 16.8685L5.84718 13.9137C4.68125 12.8803 3.94566 11.3716 3.94566 9.69027C3.94566 8.01143 4.68125 6.50272 5.84718 5.4719L3.23259 2.51453C1.251 4.27093 0 6.83549 0 9.69027C0 12.5476 1.251 15.1121 3.23259 16.8685" fill="#00A4E0"/>
<path d="M15.1046 10.8212C14.5817 13.3932 12.3073 15.3273 9.58266 15.3273C8.95716 15.3273 8.35418 15.2272 7.79373 15.037L6.54272 18.78C7.49849 19.0978 8.51931 19.2704 9.58266 19.2704C14.2139 19.2704 18.0795 15.9828 18.9702 11.6143L15.1046 10.8212Z" fill="#EF4123"/>
<path d="M22.3504 14.0362C22.2228 13.8311 22.0527 13.5033 21.9476 13.2606C21.3346 11.8395 21.3071 10.3683 21.8225 8.95715C22.3905 7.40841 23.4763 6.22496 24.8799 5.61948C26.6439 4.86137 28.5929 5.00899 30.2843 6.01229C31.3576 6.62779 32.1182 7.57855 32.6962 8.92463C32.7688 9.09726 32.8338 9.27991 32.8989 9.43754L22.3504 14.0362ZM25.8732 7.90381C24.6197 8.44174 23.9742 9.61768 24.1093 10.9938L29.4136 8.70945C28.5003 7.6386 27.3144 7.28331 25.8732 7.90381V7.90381ZM30.0741 12.8728C30.0716 12.8728 30.0716 12.8753 30.0716 12.8753L29.9615 12.8002C29.6438 13.3131 29.1509 13.731 28.5279 14.0012C27.3419 14.5166 26.2435 14.384 25.4529 13.6909L25.3803 13.801C25.3803 13.801 25.3803 13.7985 25.3778 13.7985L24.0318 15.8126C24.367 16.0453 24.7248 16.2405 25.1001 16.3981C26.5863 17.0161 28.1075 16.9861 29.6062 16.3356C30.6896 15.8652 31.5403 15.1496 32.1207 14.2414L30.0741 12.8728ZM36.5843 2.6571V13.8511L38.3257 14.5566L37.3374 16.8635L35.4159 16.0628C34.9855 15.8752 34.6903 15.59 34.4701 15.2672C34.2575 14.9394 34.0998 14.4866 34.0998 13.8811V2.6571H36.5843ZM41.0929 11.0013C41.0929 10.048 41.5158 9.19234 42.1813 8.61187L40.3949 6.62028C39.1839 7.69114 38.4208 9.25489 38.4208 10.9963C38.4183 12.7402 39.1814 14.3064 40.3899 15.3773L42.1738 13.3857C41.5108 12.8027 41.0929 11.9521 41.0929 11.0013V11.0013ZM44.2655 14.1763C43.9152 14.1763 43.5749 14.1163 43.2597 14.0112L42.4065 16.5457C42.9895 16.7409 43.6125 16.8485 44.263 16.8485C47.0902 16.851 49.4496 14.8444 49.9976 12.1797L47.3755 11.6443C47.0777 13.093 45.7992 14.1788 44.2655 14.1763V14.1763ZM44.273 5.1541C43.625 5.1541 43.002 5.25919 42.419 5.45184L43.2647 7.98888C43.5824 7.88379 43.9202 7.82625 44.2705 7.82625C45.8067 7.82875 47.0877 8.91962 47.378 10.3708L50.0001 9.84036C49.4621 7.17072 47.1027 5.15661 44.273 5.1541V5.1541Z" fill="white"/>
</svg>
