<svg width="50" height="13" viewBox="0 0 50 13" fill="none" xmlns="http://www.w3.org/2000/svg">
<path d="M10.8016 2.23919C11.064 2.05848 11.4019 1.23545 11.0158 0.892793C10.8936 0.784315 10.6891 0.75283 10.4038 0.801069C10.1392 0.845743 9.98703 0.935685 9.88366 1.07648C9.71756 1.30282 9.56512 1.98564 9.82247 2.23931C10.0732 2.48621 10.6347 2.35409 10.8016 2.23919V2.23919ZM7.06848 0.892793C6.88052 2.11242 6.66879 3.30828 6.45647 4.50355C5.09332 4.51792 3.70153 4.5708 2.38673 4.47289C2.63506 3.30353 2.81316 2.06382 3.05993 0.892793H1.59116C1.0654 3.87574 0.58706 6.90632 0 9.82796H1.49943C1.73456 8.32936 1.95461 6.81531 2.26436 5.39097C3.54279 5.35948 5.07502 5.30459 6.30355 5.42162C6.05024 6.9024 5.74418 8.33007 5.50798 9.82796H7.00741C7.48932 6.80094 7.99677 3.79981 8.59868 0.892793H7.06848V0.892793ZM28.274 3.46321C27.1074 2.992 26.1902 3.78829 25.7649 4.5342C25.8614 4.20236 25.9011 3.81371 25.9793 3.46321H24.8164C24.5321 5.66781 24.1132 7.73755 23.7149 9.82796H25.0308C25.2152 8.58718 25.2948 6.91452 25.7039 5.72757C26.0308 4.77908 26.8865 3.97102 28.1212 4.41182C28.1384 4.06192 28.2385 3.79482 28.274 3.46321V3.46321ZM29.0083 8.32864C28.887 8.01521 28.8558 7.4979 28.886 7.10451C28.954 6.22041 29.2762 5.14396 29.7735 4.65658C30.4596 3.98398 31.8142 4.0953 32.8947 4.47301C32.9281 4.10885 33.0013 3.78401 33.0477 3.43268C31.2758 3.14325 29.5943 3.32337 28.7027 4.25891C27.8298 5.17473 27.2578 7.27964 27.6621 8.60406C28.1355 10.1539 30.2582 10.2381 31.9768 9.64451C32.0528 9.33298 32.0931 8.98569 32.1603 8.66536C31.2211 9.15309 29.4257 9.40664 29.0083 8.32864V8.32864ZM43.788 3.49375C42.6251 2.91227 41.6569 3.88797 41.2789 4.47289C41.3866 4.17277 41.3928 3.77082 41.493 3.4631H40.3303C40.0168 5.64856 39.6389 7.76962 39.1983 9.82784H40.5447C40.5531 8.98426 40.7188 8.36025 40.8505 7.53307C41.1318 5.76654 41.5451 3.8294 43.6047 4.41171C43.6728 4.11301 43.7012 3.77415 43.788 3.49375ZM9.45521 3.46321C9.41957 3.46832 9.42195 3.51157 9.42456 3.55494C9.13465 5.72317 8.74221 7.78911 8.32304 9.82784H9.63878C9.95495 7.64499 10.3171 5.50836 10.771 3.4631L9.45521 3.46321V3.46321ZM21.0219 3.34084C20.0711 3.41414 19.2675 3.68765 18.6963 4.28945C17.9958 5.0274 17.4286 6.65907 17.5948 8.14508C17.832 10.265 20.4714 10.1888 22.5825 9.67504C22.6185 9.30292 22.7086 8.98485 22.7661 8.63459C21.8965 8.96002 20.3865 9.41425 19.4918 8.84893C18.8164 8.42179 18.8125 7.34071 19.0328 6.40089C20.4517 6.35574 21.9264 6.36429 23.3473 6.40089C23.4374 5.73482 23.6953 5.00863 23.4697 4.35075C23.1722 3.48222 22.1064 3.25719 21.0219 3.34084ZM22.2764 5.66638H19.1857C19.2836 4.95587 19.9228 4.17491 20.93 4.13641C21.8779 4.10018 22.5566 4.48442 22.2764 5.66638V5.66638ZM16.0342 3.46321C14.9205 3.04487 13.5633 3.54424 12.9748 4.01926C12.977 4.04017 12.9608 4.04303 12.9435 4.04457C12.9535 4.03613 12.9644 4.0277 12.9748 4.01926C12.9747 4.01751 12.9745 4.01577 12.9742 4.01404C12.9841 3.80979 13.056 3.66745 13.066 3.46321H11.9338C11.462 6.60216 10.9025 9.6533 10.3121 12.6737H11.6278C11.8183 11.4974 11.944 10.2564 12.2093 9.15476C12.5098 10.3134 14.4719 10.0921 15.2999 9.64439C17.0081 8.72049 18.3257 4.3239 16.0342 3.46321V3.46321ZM14.9938 8.63459C14.2899 9.38015 12.5592 9.36898 12.4234 8.1143C12.3644 7.56847 12.5677 6.99615 12.6684 6.43142C12.77 5.85981 12.8433 5.31136 12.9436 4.80961C13.637 3.96295 15.6745 3.86065 15.8813 5.26859C16.0606 6.49095 15.5767 8.01711 14.9938 8.63459V8.63459ZM48.6839 0.709225C48.5711 1.69799 48.4204 2.64886 48.225 3.55494C44.9975 2.53326 43.0181 4.90799 43.0538 7.83901C43.0608 8.40587 43.1583 8.96798 43.5126 9.36898C44.1238 10.0598 45.873 10.2253 46.7564 9.64427C46.9272 9.53187 47.102 9.32728 47.2152 9.18541C47.3004 9.0786 47.4355 8.79879 47.4601 8.87935C47.4135 9.18981 47.3442 9.47757 47.3379 9.82784H48.5312C48.7614 6.52861 49.4723 3.7107 50 0.709106H48.684V0.709225H48.6839ZM45.7465 9.1241C44.8607 9.14312 44.4203 8.59491 44.3999 7.68598C44.3647 6.09411 45.0629 4.32556 46.4808 4.16695C47.141 4.09316 47.619 4.24667 48.1027 4.41182C47.6585 6.19997 47.8188 9.07967 45.7465 9.1241V9.1241ZM34.3939 3.46321C34.3292 3.82678 34.2297 4.15578 34.1492 4.50355C34.9256 4.30881 37.3433 3.71189 37.5763 4.74831C37.6537 5.09263 37.5203 5.45846 37.4233 5.72757C35.2371 5.52048 33.4552 5.88369 32.9863 7.4411C32.6724 8.48429 33.0215 9.51084 33.6902 9.79742C34.978 10.3492 36.5444 9.7171 37.0867 8.84893C37.0304 9.14941 36.977 9.45322 36.9951 9.82796H38.1272C38.1393 8.74366 38.2971 7.86598 38.4638 6.89028C38.6059 6.05942 38.8733 5.23687 38.831 4.50355C38.7336 2.82411 35.9513 3.41818 34.3939 3.46321V3.46321ZM36.5359 8.60394C35.8578 9.26775 33.9544 9.45631 34.1492 7.86955C34.3107 6.55166 35.7458 6.27162 37.3007 6.46184C37.1852 7.1828 37.0526 8.09815 36.5359 8.60394V8.60394Z" fill="white"/>
</svg>
