<svg width="122" height="21" viewBox="0 0 122 21" fill="none" xmlns="http://www.w3.org/2000/svg">
<path d="M3.49716 2.26455V0.48969H11.8594V2.26455H8.74219V10.6715H6.61435V2.26455H3.49716ZM13.7473 10.6715H11.4405L14.9554 0.48969H17.7296L21.2395 10.6715H18.9327L16.3823 2.81639H16.3027L13.7473 10.6715ZM13.6032 6.66938H19.052V8.34978H13.6032V6.66938ZM23.033 0.48969L25.494 8.22549H25.5884L28.0543 0.48969H30.4407L26.9308 10.6715H24.1566L20.6417 0.48969H23.033ZM31.6662 10.6715V0.48969H38.527V2.26455H33.8189V4.69068H38.174V6.46554H33.8189V8.89665H38.5469V10.6715H31.6662ZM40.2385 10.6715V0.48969H44.2555C45.0244 0.48969 45.6807 0.627238 46.2243 0.902332C46.7711 1.17411 47.1871 1.56024 47.4721 2.06071C47.7605 2.55787 47.9047 3.14286 47.9047 3.81568C47.9047 4.49182 47.7588 5.0735 47.4672 5.56071C47.1755 6.04461 46.7529 6.41583 46.1994 6.67435C45.6492 6.93287 44.983 7.06213 44.2008 7.06213H41.5112V5.33202H43.8528C44.2638 5.33202 44.6052 5.27568 44.877 5.16299C45.1487 5.0503 45.3509 4.88126 45.4835 4.65588C45.6194 4.4305 45.6873 4.15044 45.6873 3.81568C45.6873 3.47762 45.6194 3.19258 45.4835 2.96057C45.3509 2.72856 45.1471 2.5529 44.872 2.43358C44.6002 2.31095 44.2572 2.24963 43.8429 2.24963H42.3912V10.6715H40.2385ZM45.737 6.03799L48.2676 10.6715H45.8912L43.4153 6.03799H45.737ZM57.9423 0.48969V10.6715H56.0829L51.6532 4.26313H51.5787V10.6715H49.426V0.48969H51.3152L55.71 6.8931H55.7995V0.48969H57.9423ZM59.1243 0.48969H61.5355L63.8572 4.87463H63.9567L66.2784 0.48969H68.6896L64.9759 7.07208V10.6715H62.8381V7.07208L59.1243 0.48969Z" fill="#959595"/>
<path d="M69.8654 10.6715V0.48969H73.8825C74.6547 0.48969 75.3126 0.637181 75.8562 0.932162C76.3997 1.22383 76.814 1.62984 77.0991 2.1502C77.3874 2.66725 77.5316 3.26384 77.5316 3.93997C77.5316 4.61611 77.3858 5.2127 77.0941 5.72975C76.8024 6.24679 76.3799 6.64949 75.8263 6.93784C75.2762 7.2262 74.61 7.37037 73.8278 7.37037H71.2674V5.64523H73.4798C73.8941 5.64523 74.2354 5.57397 74.5039 5.43145C74.7757 5.28562 74.9779 5.0851 75.1104 4.82989C75.2463 4.57137 75.3143 4.27473 75.3143 3.93997C75.3143 3.60191 75.2463 3.30692 75.1104 3.05503C74.9779 2.79982 74.7757 2.60262 74.5039 2.46341C74.2321 2.32089 73.8874 2.24963 73.4698 2.24963H72.0181V10.6715H69.8654ZM79.5091 10.6715H77.2022L80.7172 0.48969H83.4913L87.0012 10.6715H84.6944L82.144 2.81639H82.0645L79.5091 10.6715ZM79.3649 6.66938H84.8137V8.34978H79.3649V6.66938ZM86.5911 0.48969H89.0023L91.324 4.87463H91.4235L93.7452 0.48969H96.1564L92.4426 7.07208V10.6715H90.3049V7.07208L86.5911 0.48969Z" fill="white"/>
<path fill-rule="evenodd" clip-rule="evenodd" d="M106.149 13.8617L106.146 13.8662L106.143 13.8707C105.965 14.1227 105.566 14.1968 105.254 13.9765C105.004 13.8002 104.929 13.4074 105.142 13.097C105.459 12.6927 105.689 12.2201 105.841 11.758C105.998 11.277 106.071 10.7305 106.069 10.1944C106.066 9.65837 105.987 9.11261 105.824 8.63332C105.668 8.17294 105.433 7.7028 105.111 7.30194C104.895 6.99376 104.966 6.60016 105.214 6.42122C105.523 6.19768 105.923 6.26749 106.103 6.5176L106.107 6.52209L106.11 6.5265C106.51 7.05404 106.838 7.64017 107.034 8.21523C107.241 8.8917 107.372 9.54607 107.376 10.1875C107.379 10.8624 107.315 11.5013 107.067 12.1302C106.797 12.8151 106.536 13.34 106.149 13.8617ZM109.042 15.1145L109.049 15.1034L109.057 15.0919C109.943 13.6713 110.455 11.957 110.445 10.1711C110.436 8.38569 109.906 6.67737 109.005 5.26645C108.81 4.95669 108.897 4.59044 109.227 4.3526C109.448 4.19287 109.863 4.24943 110.109 4.57952C111.127 6.19415 111.742 8.14599 111.752 10.1642C111.763 12.2512 111.17 14.1397 110.169 15.7661C109.937 16.085 109.582 16.1743 109.277 15.9936C108.945 15.7507 108.885 15.337 109.042 15.1145ZM114.232 2.45723L114.241 2.47448L114.251 2.49097C115.63 4.73918 116.396 7.33242 116.411 10.1394C116.426 12.945 115.688 15.5451 114.335 17.8072C114.127 18.1409 113.777 18.235 113.421 18.0697C113.098 17.859 113.011 17.5098 113.18 17.1571C114.332 15.1124 115.047 12.703 115.034 10.1467C115.02 7.60175 114.355 5.19617 113.103 3.15136C112.934 2.80221 113.018 2.45448 113.337 2.24136C113.723 2.05724 114.098 2.1922 114.232 2.45723ZM118.315 0.317655L118.321 0.32944L118.328 0.340875C119.999 3.2294 120.981 6.53184 121 10.1149C121.019 13.6943 120.074 17.0039 118.437 19.9079C118.229 20.2378 117.881 20.3302 117.527 20.1656C117.205 19.9556 117.117 19.6079 117.284 19.2564C118.861 16.5648 119.711 13.4463 119.693 10.1219C119.675 6.78886 118.718 3.6825 117.189 1.0174C116.997 0.628348 117.132 0.247314 117.4 0.111823C117.792 -0.0870519 118.179 0.0479481 118.315 0.317655Z" fill="white"/>
</svg>
